<svg xmlns="http://www.w3.org/2000/svg" xmlns:xlink="http://www.w3.org/1999/xlink" width="500" height="117" viewBox="0 0 500 117">
  <defs>
    <clipPath id="clip-path">
      <rect width="500" height="117" fill="none"/>
    </clipPath>
  </defs>
  <g id="Repeat_Grid_22" data-name="Repeat Grid 22" clip-path="url(#clip-path)">
    <g transform="translate(-1602 -1318)">
      <g id="Group_10789" data-name="Group 10789" transform="translate(3046 -284) rotate(90)">
        <circle id="Ellipse_387" data-name="Ellipse 387" cx="6.5" cy="6.5" r="6.5" transform="translate(1602 1323)" fill="#f6f8fd"/>
        <circle id="Ellipse_387-2" data-name="Ellipse 387" cx="6.5" cy="6.5" r="6.5" transform="translate(1619 1323)" fill="#f6f8fd"/>
        <circle id="Ellipse_387-3" data-name="Ellipse 387" cx="6.5" cy="6.5" r="6.5" transform="translate(1637 1323)" fill="#f6f8fd"/>
        <circle id="Ellipse_387-4" data-name="Ellipse 387" cx="6.5" cy="6.5" r="6.5" transform="translate(1654 1323)" fill="#f6f8fd"/>
        <circle id="Ellipse_387-5" data-name="Ellipse 387" cx="6.5" cy="6.5" r="6.5" transform="translate(1671 1323)" fill="#f6f8fd"/>
        <circle id="Ellipse_387-6" data-name="Ellipse 387" cx="6.5" cy="6.5" r="6.5" transform="translate(1689 1323)" fill="#f6f8fd"/>
        <circle id="Ellipse_387-7" data-name="Ellipse 387" cx="6.5" cy="6.5" r="6.5" transform="translate(1706 1323)" fill="#f6f8fd"/>
        <circle id="Ellipse_387-8" data-name="Ellipse 387" cx="6.5" cy="6.5" r="6.5" transform="translate(1602 1341)" fill="#f6f8fd"/>
        <circle id="Ellipse_387-9" data-name="Ellipse 387" cx="6.5" cy="6.5" r="6.5" transform="translate(1619 1341)" fill="#f6f8fd"/>
        <circle id="Ellipse_387-10" data-name="Ellipse 387" cx="6.5" cy="6.5" r="6.5" transform="translate(1637 1341)" fill="#f6f8fd"/>
        <circle id="Ellipse_387-11" data-name="Ellipse 387" cx="6.5" cy="6.5" r="6.5" transform="translate(1654 1341)" fill="#f6f8fd"/>
        <circle id="Ellipse_387-12" data-name="Ellipse 387" cx="6.5" cy="6.5" r="6.5" transform="translate(1671 1341)" fill="#f6f8fd"/>
        <circle id="Ellipse_387-13" data-name="Ellipse 387" cx="6.5" cy="6.5" r="6.5" transform="translate(1689 1341)" fill="#f6f8fd"/>
        <circle id="Ellipse_387-14" data-name="Ellipse 387" cx="6.5" cy="6.5" r="6.5" transform="translate(1706 1341)" fill="#f6f8fd"/>
        <circle id="Ellipse_387-15" data-name="Ellipse 387" cx="6.5" cy="6.5" r="6.5" transform="translate(1602 1359)" fill="#f6f8fd"/>
        <circle id="Ellipse_387-16" data-name="Ellipse 387" cx="6.5" cy="6.5" r="6.5" transform="translate(1619 1359)" fill="#f6f8fd"/>
        <circle id="Ellipse_387-17" data-name="Ellipse 387" cx="6.5" cy="6.5" r="6.5" transform="translate(1637 1359)" fill="#f6f8fd"/>
        <circle id="Ellipse_387-18" data-name="Ellipse 387" cx="6.5" cy="6.5" r="6.5" transform="translate(1654 1359)" fill="#f6f8fd"/>
        <circle id="Ellipse_387-19" data-name="Ellipse 387" cx="6.5" cy="6.5" r="6.5" transform="translate(1671 1359)" fill="#f6f8fd"/>
        <circle id="Ellipse_387-20" data-name="Ellipse 387" cx="6.5" cy="6.5" r="6.5" transform="translate(1689 1359)" fill="#f6f8fd"/>
        <circle id="Ellipse_387-21" data-name="Ellipse 387" cx="6.5" cy="6.5" r="6.5" transform="translate(1706 1359)" fill="#f6f8fd"/>
        <circle id="Ellipse_387-22" data-name="Ellipse 387" cx="6.5" cy="6.5" r="6.5" transform="translate(1602 1377)" fill="#f6f8fd"/>
        <circle id="Ellipse_387-23" data-name="Ellipse 387" cx="6.5" cy="6.5" r="6.5" transform="translate(1619 1377)" fill="#f6f8fd"/>
        <circle id="Ellipse_387-24" data-name="Ellipse 387" cx="6.5" cy="6.5" r="6.5" transform="translate(1637 1377)" fill="#f6f8fd"/>
        <circle id="Ellipse_387-25" data-name="Ellipse 387" cx="6.5" cy="6.5" r="6.5" transform="translate(1654 1377)" fill="#f6f8fd"/>
        <circle id="Ellipse_387-26" data-name="Ellipse 387" cx="6.5" cy="6.5" r="6.5" transform="translate(1671 1377)" fill="#f6f8fd"/>
        <circle id="Ellipse_387-27" data-name="Ellipse 387" cx="6.5" cy="6.5" r="6.5" transform="translate(1689 1377)" fill="#f6f8fd"/>
        <circle id="Ellipse_387-28" data-name="Ellipse 387" cx="6.5" cy="6.5" r="6.5" transform="translate(1706 1377)" fill="#f6f8fd"/>
        <circle id="Ellipse_387-29" data-name="Ellipse 387" cx="6.5" cy="6.5" r="6.5" transform="translate(1602 1395)" fill="#f6f8fd"/>
        <circle id="Ellipse_387-30" data-name="Ellipse 387" cx="6.5" cy="6.5" r="6.5" transform="translate(1619 1395)" fill="#f6f8fd"/>
        <circle id="Ellipse_387-31" data-name="Ellipse 387" cx="6.5" cy="6.5" r="6.5" transform="translate(1637 1395)" fill="#f6f8fd"/>
        <circle id="Ellipse_387-32" data-name="Ellipse 387" cx="6.5" cy="6.5" r="6.5" transform="translate(1654 1395)" fill="#f6f8fd"/>
        <circle id="Ellipse_387-33" data-name="Ellipse 387" cx="6.5" cy="6.5" r="6.5" transform="translate(1671 1395)" fill="#f6f8fd"/>
        <circle id="Ellipse_387-34" data-name="Ellipse 387" cx="6.5" cy="6.5" r="6.5" transform="translate(1689 1395)" fill="#f6f8fd"/>
        <circle id="Ellipse_387-35" data-name="Ellipse 387" cx="6.5" cy="6.5" r="6.5" transform="translate(1706 1395)" fill="#f6f8fd"/>
        <circle id="Ellipse_387-36" data-name="Ellipse 387" cx="6.5" cy="6.5" r="6.5" transform="translate(1602 1413)" fill="#f6f8fd"/>
        <circle id="Ellipse_387-37" data-name="Ellipse 387" cx="6.5" cy="6.5" r="6.5" transform="translate(1619 1413)" fill="#f6f8fd"/>
        <circle id="Ellipse_387-38" data-name="Ellipse 387" cx="6.5" cy="6.5" r="6.5" transform="translate(1637 1413)" fill="#f6f8fd"/>
        <circle id="Ellipse_387-39" data-name="Ellipse 387" cx="6.5" cy="6.5" r="6.5" transform="translate(1654 1413)" fill="#f6f8fd"/>
        <circle id="Ellipse_387-40" data-name="Ellipse 387" cx="6.5" cy="6.5" r="6.5" transform="translate(1671 1413)" fill="#f6f8fd"/>
        <circle id="Ellipse_387-41" data-name="Ellipse 387" cx="6.5" cy="6.5" r="6.5" transform="translate(1689 1413)" fill="#f6f8fd"/>
        <circle id="Ellipse_387-42" data-name="Ellipse 387" cx="6.5" cy="6.5" r="6.5" transform="translate(1706 1413)" fill="#f6f8fd"/>
        <circle id="Ellipse_387-43" data-name="Ellipse 387" cx="6.5" cy="6.5" r="6.5" transform="translate(1602 1431)" fill="#f6f8fd"/>
        <circle id="Ellipse_387-44" data-name="Ellipse 387" cx="6.5" cy="6.5" r="6.5" transform="translate(1619 1431)" fill="#f6f8fd"/>
        <circle id="Ellipse_387-45" data-name="Ellipse 387" cx="6.5" cy="6.5" r="6.5" transform="translate(1637 1431)" fill="#f6f8fd"/>
        <circle id="Ellipse_387-46" data-name="Ellipse 387" cx="6.5" cy="6.5" r="6.5" transform="translate(1654 1431)" fill="#f6f8fd"/>
        <circle id="Ellipse_387-47" data-name="Ellipse 387" cx="6.5" cy="6.5" r="6.5" transform="translate(1671 1431)" fill="#f6f8fd"/>
        <circle id="Ellipse_387-48" data-name="Ellipse 387" cx="6.5" cy="6.5" r="6.5" transform="translate(1689 1431)" fill="#f6f8fd"/>
        <circle id="Ellipse_387-49" data-name="Ellipse 387" cx="6.5" cy="6.5" r="6.5" transform="translate(1706 1431)" fill="#f6f8fd"/>
      </g>
    </g>
    <g transform="translate(-1476 -1318)">
      <g id="Group_10789-2" data-name="Group 10789" transform="translate(3046 -284) rotate(90)">
        <circle id="Ellipse_387-50" data-name="Ellipse 387" cx="6.5" cy="6.5" r="6.5" transform="translate(1602 1323)" fill="#f6f8fd"/>
        <circle id="Ellipse_387-51" data-name="Ellipse 387" cx="6.5" cy="6.5" r="6.5" transform="translate(1619 1323)" fill="#f6f8fd"/>
        <circle id="Ellipse_387-52" data-name="Ellipse 387" cx="6.5" cy="6.5" r="6.5" transform="translate(1637 1323)" fill="#f6f8fd"/>
        <circle id="Ellipse_387-53" data-name="Ellipse 387" cx="6.5" cy="6.5" r="6.5" transform="translate(1654 1323)" fill="#f6f8fd"/>
        <circle id="Ellipse_387-54" data-name="Ellipse 387" cx="6.5" cy="6.5" r="6.5" transform="translate(1671 1323)" fill="#f6f8fd"/>
        <circle id="Ellipse_387-55" data-name="Ellipse 387" cx="6.5" cy="6.5" r="6.5" transform="translate(1689 1323)" fill="#f6f8fd"/>
        <circle id="Ellipse_387-56" data-name="Ellipse 387" cx="6.5" cy="6.5" r="6.5" transform="translate(1706 1323)" fill="#f6f8fd"/>
        <circle id="Ellipse_387-57" data-name="Ellipse 387" cx="6.5" cy="6.5" r="6.5" transform="translate(1602 1341)" fill="#f6f8fd"/>
        <circle id="Ellipse_387-58" data-name="Ellipse 387" cx="6.5" cy="6.5" r="6.5" transform="translate(1619 1341)" fill="#f6f8fd"/>
        <circle id="Ellipse_387-59" data-name="Ellipse 387" cx="6.5" cy="6.5" r="6.5" transform="translate(1637 1341)" fill="#f6f8fd"/>
        <circle id="Ellipse_387-60" data-name="Ellipse 387" cx="6.5" cy="6.5" r="6.5" transform="translate(1654 1341)" fill="#f6f8fd"/>
        <circle id="Ellipse_387-61" data-name="Ellipse 387" cx="6.5" cy="6.5" r="6.5" transform="translate(1671 1341)" fill="#f6f8fd"/>
        <circle id="Ellipse_387-62" data-name="Ellipse 387" cx="6.5" cy="6.5" r="6.5" transform="translate(1689 1341)" fill="#f6f8fd"/>
        <circle id="Ellipse_387-63" data-name="Ellipse 387" cx="6.5" cy="6.5" r="6.5" transform="translate(1706 1341)" fill="#f6f8fd"/>
        <circle id="Ellipse_387-64" data-name="Ellipse 387" cx="6.5" cy="6.5" r="6.5" transform="translate(1602 1359)" fill="#f6f8fd"/>
        <circle id="Ellipse_387-65" data-name="Ellipse 387" cx="6.5" cy="6.5" r="6.5" transform="translate(1619 1359)" fill="#f6f8fd"/>
        <circle id="Ellipse_387-66" data-name="Ellipse 387" cx="6.5" cy="6.5" r="6.5" transform="translate(1637 1359)" fill="#f6f8fd"/>
        <circle id="Ellipse_387-67" data-name="Ellipse 387" cx="6.5" cy="6.5" r="6.5" transform="translate(1654 1359)" fill="#f6f8fd"/>
        <circle id="Ellipse_387-68" data-name="Ellipse 387" cx="6.5" cy="6.5" r="6.5" transform="translate(1671 1359)" fill="#f6f8fd"/>
        <circle id="Ellipse_387-69" data-name="Ellipse 387" cx="6.5" cy="6.5" r="6.5" transform="translate(1689 1359)" fill="#f6f8fd"/>
        <circle id="Ellipse_387-70" data-name="Ellipse 387" cx="6.5" cy="6.5" r="6.5" transform="translate(1706 1359)" fill="#f6f8fd"/>
        <circle id="Ellipse_387-71" data-name="Ellipse 387" cx="6.5" cy="6.5" r="6.5" transform="translate(1602 1377)" fill="#f6f8fd"/>
        <circle id="Ellipse_387-72" data-name="Ellipse 387" cx="6.5" cy="6.5" r="6.5" transform="translate(1619 1377)" fill="#f6f8fd"/>
        <circle id="Ellipse_387-73" data-name="Ellipse 387" cx="6.5" cy="6.5" r="6.5" transform="translate(1637 1377)" fill="#f6f8fd"/>
        <circle id="Ellipse_387-74" data-name="Ellipse 387" cx="6.5" cy="6.5" r="6.5" transform="translate(1654 1377)" fill="#f6f8fd"/>
        <circle id="Ellipse_387-75" data-name="Ellipse 387" cx="6.5" cy="6.5" r="6.5" transform="translate(1671 1377)" fill="#f6f8fd"/>
        <circle id="Ellipse_387-76" data-name="Ellipse 387" cx="6.5" cy="6.5" r="6.5" transform="translate(1689 1377)" fill="#f6f8fd"/>
        <circle id="Ellipse_387-77" data-name="Ellipse 387" cx="6.5" cy="6.5" r="6.5" transform="translate(1706 1377)" fill="#f6f8fd"/>
        <circle id="Ellipse_387-78" data-name="Ellipse 387" cx="6.5" cy="6.5" r="6.5" transform="translate(1602 1395)" fill="#f6f8fd"/>
        <circle id="Ellipse_387-79" data-name="Ellipse 387" cx="6.5" cy="6.5" r="6.5" transform="translate(1619 1395)" fill="#f6f8fd"/>
        <circle id="Ellipse_387-80" data-name="Ellipse 387" cx="6.5" cy="6.5" r="6.5" transform="translate(1637 1395)" fill="#f6f8fd"/>
        <circle id="Ellipse_387-81" data-name="Ellipse 387" cx="6.5" cy="6.5" r="6.5" transform="translate(1654 1395)" fill="#f6f8fd"/>
        <circle id="Ellipse_387-82" data-name="Ellipse 387" cx="6.5" cy="6.5" r="6.5" transform="translate(1671 1395)" fill="#f6f8fd"/>
        <circle id="Ellipse_387-83" data-name="Ellipse 387" cx="6.5" cy="6.5" r="6.5" transform="translate(1689 1395)" fill="#f6f8fd"/>
        <circle id="Ellipse_387-84" data-name="Ellipse 387" cx="6.5" cy="6.5" r="6.5" transform="translate(1706 1395)" fill="#f6f8fd"/>
        <circle id="Ellipse_387-85" data-name="Ellipse 387" cx="6.5" cy="6.5" r="6.5" transform="translate(1602 1413)" fill="#f6f8fd"/>
        <circle id="Ellipse_387-86" data-name="Ellipse 387" cx="6.5" cy="6.5" r="6.5" transform="translate(1619 1413)" fill="#f6f8fd"/>
        <circle id="Ellipse_387-87" data-name="Ellipse 387" cx="6.5" cy="6.5" r="6.5" transform="translate(1637 1413)" fill="#f6f8fd"/>
        <circle id="Ellipse_387-88" data-name="Ellipse 387" cx="6.5" cy="6.5" r="6.5" transform="translate(1654 1413)" fill="#f6f8fd"/>
        <circle id="Ellipse_387-89" data-name="Ellipse 387" cx="6.5" cy="6.5" r="6.5" transform="translate(1671 1413)" fill="#f6f8fd"/>
        <circle id="Ellipse_387-90" data-name="Ellipse 387" cx="6.5" cy="6.5" r="6.5" transform="translate(1689 1413)" fill="#f6f8fd"/>
        <circle id="Ellipse_387-91" data-name="Ellipse 387" cx="6.5" cy="6.5" r="6.5" transform="translate(1706 1413)" fill="#f6f8fd"/>
        <circle id="Ellipse_387-92" data-name="Ellipse 387" cx="6.5" cy="6.5" r="6.5" transform="translate(1602 1431)" fill="#f6f8fd"/>
        <circle id="Ellipse_387-93" data-name="Ellipse 387" cx="6.5" cy="6.5" r="6.5" transform="translate(1619 1431)" fill="#f6f8fd"/>
        <circle id="Ellipse_387-94" data-name="Ellipse 387" cx="6.5" cy="6.5" r="6.5" transform="translate(1637 1431)" fill="#f6f8fd"/>
        <circle id="Ellipse_387-95" data-name="Ellipse 387" cx="6.5" cy="6.5" r="6.5" transform="translate(1654 1431)" fill="#f6f8fd"/>
        <circle id="Ellipse_387-96" data-name="Ellipse 387" cx="6.5" cy="6.5" r="6.5" transform="translate(1671 1431)" fill="#f6f8fd"/>
        <circle id="Ellipse_387-97" data-name="Ellipse 387" cx="6.5" cy="6.5" r="6.5" transform="translate(1689 1431)" fill="#f6f8fd"/>
        <circle id="Ellipse_387-98" data-name="Ellipse 387" cx="6.5" cy="6.5" r="6.5" transform="translate(1706 1431)" fill="#f6f8fd"/>
      </g>
    </g>
    <g transform="translate(-1350 -1318)">
      <g id="Group_10789-3" data-name="Group 10789" transform="translate(3046 -284) rotate(90)">
        <circle id="Ellipse_387-99" data-name="Ellipse 387" cx="6.5" cy="6.5" r="6.5" transform="translate(1602 1323)" fill="#f6f8fd"/>
        <circle id="Ellipse_387-100" data-name="Ellipse 387" cx="6.5" cy="6.5" r="6.5" transform="translate(1619 1323)" fill="#f6f8fd"/>
        <circle id="Ellipse_387-101" data-name="Ellipse 387" cx="6.5" cy="6.5" r="6.5" transform="translate(1637 1323)" fill="#f6f8fd"/>
        <circle id="Ellipse_387-102" data-name="Ellipse 387" cx="6.5" cy="6.5" r="6.5" transform="translate(1654 1323)" fill="#f6f8fd"/>
        <circle id="Ellipse_387-103" data-name="Ellipse 387" cx="6.5" cy="6.5" r="6.5" transform="translate(1671 1323)" fill="#f6f8fd"/>
        <circle id="Ellipse_387-104" data-name="Ellipse 387" cx="6.5" cy="6.5" r="6.5" transform="translate(1689 1323)" fill="#f6f8fd"/>
        <circle id="Ellipse_387-105" data-name="Ellipse 387" cx="6.5" cy="6.5" r="6.5" transform="translate(1706 1323)" fill="#f6f8fd"/>
        <circle id="Ellipse_387-106" data-name="Ellipse 387" cx="6.5" cy="6.5" r="6.5" transform="translate(1602 1341)" fill="#f6f8fd"/>
        <circle id="Ellipse_387-107" data-name="Ellipse 387" cx="6.5" cy="6.5" r="6.5" transform="translate(1619 1341)" fill="#f6f8fd"/>
        <circle id="Ellipse_387-108" data-name="Ellipse 387" cx="6.5" cy="6.5" r="6.5" transform="translate(1637 1341)" fill="#f6f8fd"/>
        <circle id="Ellipse_387-109" data-name="Ellipse 387" cx="6.5" cy="6.5" r="6.5" transform="translate(1654 1341)" fill="#f6f8fd"/>
        <circle id="Ellipse_387-110" data-name="Ellipse 387" cx="6.5" cy="6.5" r="6.5" transform="translate(1671 1341)" fill="#f6f8fd"/>
        <circle id="Ellipse_387-111" data-name="Ellipse 387" cx="6.5" cy="6.5" r="6.5" transform="translate(1689 1341)" fill="#f6f8fd"/>
        <circle id="Ellipse_387-112" data-name="Ellipse 387" cx="6.5" cy="6.5" r="6.5" transform="translate(1706 1341)" fill="#f6f8fd"/>
        <circle id="Ellipse_387-113" data-name="Ellipse 387" cx="6.5" cy="6.5" r="6.5" transform="translate(1602 1359)" fill="#f6f8fd"/>
        <circle id="Ellipse_387-114" data-name="Ellipse 387" cx="6.5" cy="6.5" r="6.5" transform="translate(1619 1359)" fill="#f6f8fd"/>
        <circle id="Ellipse_387-115" data-name="Ellipse 387" cx="6.5" cy="6.5" r="6.5" transform="translate(1637 1359)" fill="#f6f8fd"/>
        <circle id="Ellipse_387-116" data-name="Ellipse 387" cx="6.5" cy="6.5" r="6.5" transform="translate(1654 1359)" fill="#f6f8fd"/>
        <circle id="Ellipse_387-117" data-name="Ellipse 387" cx="6.5" cy="6.5" r="6.5" transform="translate(1671 1359)" fill="#f6f8fd"/>
        <circle id="Ellipse_387-118" data-name="Ellipse 387" cx="6.5" cy="6.5" r="6.5" transform="translate(1689 1359)" fill="#f6f8fd"/>
        <circle id="Ellipse_387-119" data-name="Ellipse 387" cx="6.5" cy="6.5" r="6.5" transform="translate(1706 1359)" fill="#f6f8fd"/>
        <circle id="Ellipse_387-120" data-name="Ellipse 387" cx="6.5" cy="6.5" r="6.5" transform="translate(1602 1377)" fill="#f6f8fd"/>
        <circle id="Ellipse_387-121" data-name="Ellipse 387" cx="6.5" cy="6.5" r="6.5" transform="translate(1619 1377)" fill="#f6f8fd"/>
        <circle id="Ellipse_387-122" data-name="Ellipse 387" cx="6.5" cy="6.5" r="6.5" transform="translate(1637 1377)" fill="#f6f8fd"/>
        <circle id="Ellipse_387-123" data-name="Ellipse 387" cx="6.5" cy="6.5" r="6.5" transform="translate(1654 1377)" fill="#f6f8fd"/>
        <circle id="Ellipse_387-124" data-name="Ellipse 387" cx="6.5" cy="6.5" r="6.5" transform="translate(1671 1377)" fill="#f6f8fd"/>
        <circle id="Ellipse_387-125" data-name="Ellipse 387" cx="6.5" cy="6.5" r="6.5" transform="translate(1689 1377)" fill="#f6f8fd"/>
        <circle id="Ellipse_387-126" data-name="Ellipse 387" cx="6.5" cy="6.5" r="6.5" transform="translate(1706 1377)" fill="#f6f8fd"/>
        <circle id="Ellipse_387-127" data-name="Ellipse 387" cx="6.5" cy="6.5" r="6.5" transform="translate(1602 1395)" fill="#f6f8fd"/>
        <circle id="Ellipse_387-128" data-name="Ellipse 387" cx="6.5" cy="6.5" r="6.5" transform="translate(1619 1395)" fill="#f6f8fd"/>
        <circle id="Ellipse_387-129" data-name="Ellipse 387" cx="6.5" cy="6.5" r="6.5" transform="translate(1637 1395)" fill="#f6f8fd"/>
        <circle id="Ellipse_387-130" data-name="Ellipse 387" cx="6.5" cy="6.5" r="6.5" transform="translate(1654 1395)" fill="#f6f8fd"/>
        <circle id="Ellipse_387-131" data-name="Ellipse 387" cx="6.5" cy="6.5" r="6.5" transform="translate(1671 1395)" fill="#f6f8fd"/>
        <circle id="Ellipse_387-132" data-name="Ellipse 387" cx="6.5" cy="6.5" r="6.5" transform="translate(1689 1395)" fill="#f6f8fd"/>
        <circle id="Ellipse_387-133" data-name="Ellipse 387" cx="6.5" cy="6.5" r="6.5" transform="translate(1706 1395)" fill="#f6f8fd"/>
        <circle id="Ellipse_387-134" data-name="Ellipse 387" cx="6.5" cy="6.5" r="6.5" transform="translate(1602 1413)" fill="#f6f8fd"/>
        <circle id="Ellipse_387-135" data-name="Ellipse 387" cx="6.5" cy="6.5" r="6.5" transform="translate(1619 1413)" fill="#f6f8fd"/>
        <circle id="Ellipse_387-136" data-name="Ellipse 387" cx="6.5" cy="6.5" r="6.5" transform="translate(1637 1413)" fill="#f6f8fd"/>
        <circle id="Ellipse_387-137" data-name="Ellipse 387" cx="6.5" cy="6.5" r="6.5" transform="translate(1654 1413)" fill="#f6f8fd"/>
        <circle id="Ellipse_387-138" data-name="Ellipse 387" cx="6.5" cy="6.5" r="6.5" transform="translate(1671 1413)" fill="#f6f8fd"/>
        <circle id="Ellipse_387-139" data-name="Ellipse 387" cx="6.5" cy="6.5" r="6.5" transform="translate(1689 1413)" fill="#f6f8fd"/>
        <circle id="Ellipse_387-140" data-name="Ellipse 387" cx="6.5" cy="6.5" r="6.5" transform="translate(1706 1413)" fill="#f6f8fd"/>
        <circle id="Ellipse_387-141" data-name="Ellipse 387" cx="6.5" cy="6.5" r="6.5" transform="translate(1602 1431)" fill="#f6f8fd"/>
        <circle id="Ellipse_387-142" data-name="Ellipse 387" cx="6.5" cy="6.5" r="6.5" transform="translate(1619 1431)" fill="#f6f8fd"/>
        <circle id="Ellipse_387-143" data-name="Ellipse 387" cx="6.5" cy="6.5" r="6.5" transform="translate(1637 1431)" fill="#f6f8fd"/>
        <circle id="Ellipse_387-144" data-name="Ellipse 387" cx="6.5" cy="6.5" r="6.5" transform="translate(1654 1431)" fill="#f6f8fd"/>
        <circle id="Ellipse_387-145" data-name="Ellipse 387" cx="6.5" cy="6.5" r="6.5" transform="translate(1671 1431)" fill="#f6f8fd"/>
        <circle id="Ellipse_387-146" data-name="Ellipse 387" cx="6.5" cy="6.5" r="6.5" transform="translate(1689 1431)" fill="#f6f8fd"/>
        <circle id="Ellipse_387-147" data-name="Ellipse 387" cx="6.5" cy="6.5" r="6.5" transform="translate(1706 1431)" fill="#f6f8fd"/>
      </g>
    </g>
    <g transform="translate(-1224 -1318)">
      <g id="Group_10789-4" data-name="Group 10789" transform="translate(3046 -284) rotate(90)">
        <circle id="Ellipse_387-148" data-name="Ellipse 387" cx="6.5" cy="6.5" r="6.5" transform="translate(1602 1323)" fill="#f6f8fd"/>
        <circle id="Ellipse_387-149" data-name="Ellipse 387" cx="6.5" cy="6.5" r="6.5" transform="translate(1619 1323)" fill="#f6f8fd"/>
        <circle id="Ellipse_387-150" data-name="Ellipse 387" cx="6.5" cy="6.5" r="6.5" transform="translate(1637 1323)" fill="#f6f8fd"/>
        <circle id="Ellipse_387-151" data-name="Ellipse 387" cx="6.5" cy="6.5" r="6.5" transform="translate(1654 1323)" fill="#f6f8fd"/>
        <circle id="Ellipse_387-152" data-name="Ellipse 387" cx="6.5" cy="6.5" r="6.5" transform="translate(1671 1323)" fill="#f6f8fd"/>
        <circle id="Ellipse_387-153" data-name="Ellipse 387" cx="6.5" cy="6.5" r="6.5" transform="translate(1689 1323)" fill="#f6f8fd"/>
        <circle id="Ellipse_387-154" data-name="Ellipse 387" cx="6.5" cy="6.5" r="6.5" transform="translate(1706 1323)" fill="#f6f8fd"/>
        <circle id="Ellipse_387-155" data-name="Ellipse 387" cx="6.5" cy="6.5" r="6.5" transform="translate(1602 1341)" fill="#f6f8fd"/>
        <circle id="Ellipse_387-156" data-name="Ellipse 387" cx="6.5" cy="6.5" r="6.5" transform="translate(1619 1341)" fill="#f6f8fd"/>
        <circle id="Ellipse_387-157" data-name="Ellipse 387" cx="6.5" cy="6.5" r="6.5" transform="translate(1637 1341)" fill="#f6f8fd"/>
        <circle id="Ellipse_387-158" data-name="Ellipse 387" cx="6.5" cy="6.5" r="6.5" transform="translate(1654 1341)" fill="#f6f8fd"/>
        <circle id="Ellipse_387-159" data-name="Ellipse 387" cx="6.5" cy="6.5" r="6.5" transform="translate(1671 1341)" fill="#f6f8fd"/>
        <circle id="Ellipse_387-160" data-name="Ellipse 387" cx="6.5" cy="6.5" r="6.5" transform="translate(1689 1341)" fill="#f6f8fd"/>
        <circle id="Ellipse_387-161" data-name="Ellipse 387" cx="6.5" cy="6.5" r="6.5" transform="translate(1706 1341)" fill="#f6f8fd"/>
        <circle id="Ellipse_387-162" data-name="Ellipse 387" cx="6.5" cy="6.5" r="6.5" transform="translate(1602 1359)" fill="#f6f8fd"/>
        <circle id="Ellipse_387-163" data-name="Ellipse 387" cx="6.5" cy="6.5" r="6.5" transform="translate(1619 1359)" fill="#f6f8fd"/>
        <circle id="Ellipse_387-164" data-name="Ellipse 387" cx="6.5" cy="6.5" r="6.5" transform="translate(1637 1359)" fill="#f6f8fd"/>
        <circle id="Ellipse_387-165" data-name="Ellipse 387" cx="6.5" cy="6.5" r="6.5" transform="translate(1654 1359)" fill="#f6f8fd"/>
        <circle id="Ellipse_387-166" data-name="Ellipse 387" cx="6.5" cy="6.5" r="6.5" transform="translate(1671 1359)" fill="#f6f8fd"/>
        <circle id="Ellipse_387-167" data-name="Ellipse 387" cx="6.5" cy="6.5" r="6.5" transform="translate(1689 1359)" fill="#f6f8fd"/>
        <circle id="Ellipse_387-168" data-name="Ellipse 387" cx="6.5" cy="6.5" r="6.5" transform="translate(1706 1359)" fill="#f6f8fd"/>
        <circle id="Ellipse_387-169" data-name="Ellipse 387" cx="6.5" cy="6.5" r="6.5" transform="translate(1602 1377)" fill="#f6f8fd"/>
        <circle id="Ellipse_387-170" data-name="Ellipse 387" cx="6.5" cy="6.5" r="6.5" transform="translate(1619 1377)" fill="#f6f8fd"/>
        <circle id="Ellipse_387-171" data-name="Ellipse 387" cx="6.5" cy="6.5" r="6.5" transform="translate(1637 1377)" fill="#f6f8fd"/>
        <circle id="Ellipse_387-172" data-name="Ellipse 387" cx="6.5" cy="6.5" r="6.5" transform="translate(1654 1377)" fill="#f6f8fd"/>
        <circle id="Ellipse_387-173" data-name="Ellipse 387" cx="6.5" cy="6.5" r="6.5" transform="translate(1671 1377)" fill="#f6f8fd"/>
        <circle id="Ellipse_387-174" data-name="Ellipse 387" cx="6.5" cy="6.5" r="6.5" transform="translate(1689 1377)" fill="#f6f8fd"/>
        <circle id="Ellipse_387-175" data-name="Ellipse 387" cx="6.5" cy="6.5" r="6.5" transform="translate(1706 1377)" fill="#f6f8fd"/>
        <circle id="Ellipse_387-176" data-name="Ellipse 387" cx="6.5" cy="6.5" r="6.5" transform="translate(1602 1395)" fill="#f6f8fd"/>
        <circle id="Ellipse_387-177" data-name="Ellipse 387" cx="6.5" cy="6.5" r="6.5" transform="translate(1619 1395)" fill="#f6f8fd"/>
        <circle id="Ellipse_387-178" data-name="Ellipse 387" cx="6.5" cy="6.5" r="6.5" transform="translate(1637 1395)" fill="#f6f8fd"/>
        <circle id="Ellipse_387-179" data-name="Ellipse 387" cx="6.5" cy="6.5" r="6.5" transform="translate(1654 1395)" fill="#f6f8fd"/>
        <circle id="Ellipse_387-180" data-name="Ellipse 387" cx="6.5" cy="6.5" r="6.5" transform="translate(1671 1395)" fill="#f6f8fd"/>
        <circle id="Ellipse_387-181" data-name="Ellipse 387" cx="6.5" cy="6.5" r="6.5" transform="translate(1689 1395)" fill="#f6f8fd"/>
        <circle id="Ellipse_387-182" data-name="Ellipse 387" cx="6.5" cy="6.5" r="6.5" transform="translate(1706 1395)" fill="#f6f8fd"/>
        <circle id="Ellipse_387-183" data-name="Ellipse 387" cx="6.5" cy="6.5" r="6.5" transform="translate(1602 1413)" fill="#f6f8fd"/>
        <circle id="Ellipse_387-184" data-name="Ellipse 387" cx="6.5" cy="6.5" r="6.5" transform="translate(1619 1413)" fill="#f6f8fd"/>
        <circle id="Ellipse_387-185" data-name="Ellipse 387" cx="6.5" cy="6.5" r="6.5" transform="translate(1637 1413)" fill="#f6f8fd"/>
        <circle id="Ellipse_387-186" data-name="Ellipse 387" cx="6.5" cy="6.5" r="6.5" transform="translate(1654 1413)" fill="#f6f8fd"/>
        <circle id="Ellipse_387-187" data-name="Ellipse 387" cx="6.5" cy="6.5" r="6.5" transform="translate(1671 1413)" fill="#f6f8fd"/>
        <circle id="Ellipse_387-188" data-name="Ellipse 387" cx="6.5" cy="6.5" r="6.5" transform="translate(1689 1413)" fill="#f6f8fd"/>
        <circle id="Ellipse_387-189" data-name="Ellipse 387" cx="6.5" cy="6.5" r="6.5" transform="translate(1706 1413)" fill="#f6f8fd"/>
        <circle id="Ellipse_387-190" data-name="Ellipse 387" cx="6.5" cy="6.5" r="6.5" transform="translate(1602 1431)" fill="#f6f8fd"/>
        <circle id="Ellipse_387-191" data-name="Ellipse 387" cx="6.5" cy="6.5" r="6.5" transform="translate(1619 1431)" fill="#f6f8fd"/>
        <circle id="Ellipse_387-192" data-name="Ellipse 387" cx="6.5" cy="6.5" r="6.5" transform="translate(1637 1431)" fill="#f6f8fd"/>
        <circle id="Ellipse_387-193" data-name="Ellipse 387" cx="6.5" cy="6.5" r="6.5" transform="translate(1654 1431)" fill="#f6f8fd"/>
        <circle id="Ellipse_387-194" data-name="Ellipse 387" cx="6.5" cy="6.5" r="6.5" transform="translate(1671 1431)" fill="#f6f8fd"/>
        <circle id="Ellipse_387-195" data-name="Ellipse 387" cx="6.5" cy="6.5" r="6.5" transform="translate(1689 1431)" fill="#f6f8fd"/>
        <circle id="Ellipse_387-196" data-name="Ellipse 387" cx="6.5" cy="6.5" r="6.5" transform="translate(1706 1431)" fill="#f6f8fd"/>
      </g>
    </g>
  </g>
</svg>
